# Blender v2.74 (sub 0) OBJ File: ''
# www.blender.org
mtllib boundingBox.mtl
o Cube
v 0.992174 -0.916411 -1.085311
v 0.992174 -0.916411 0.914689
v -1.007826 -0.100616 1.592090
v -4.163988 0.002535 -0.140025
v 0.992175 1.083589 -1.085311
v -0.290668 3.814200 0.453439
v -2.467550 4.070699 0.537757
v -1.007826 1.083589 -1.085311
vn -0.202100 -0.968700 0.144200
vn 0.012400 0.488400 -0.872500
vn 0.960600 0.196600 0.196600
vn 0.231900 0.232300 0.944600
vn -0.920400 0.357500 0.158100
vn -0.148200 -0.148200 -0.977800
usemtl Material
s off
f 1//1 2//1 3//1 4//1
f 5//2 8//2 7//2 6//2
f 1//3 5//3 6//3 2//3
f 2//4 6//4 7//4 3//4
f 3//5 7//5 8//5 4//5
f 5//6 1//6 4//6 8//6
